<svg id="Ebene_1" data-name="Ebene 1" xmlns="http://www.w3.org/2000/svg" viewBox="0 0 100 100"><defs><style>.cls-1{fill:#002337;}</style></defs><path class="cls-1" d="M63.37,52.59a19.56,19.56,0,0,0,6.86-14.84,14.42,14.42,0,0,0-.77-4.57A19,19,0,0,0,67.05,28l.12.11,4.09-4.46L64,17l-4.09,4.46.06.06a21.23,21.23,0,0,0-9.78-2.61l-.27,0H49.7c-10.62.08-20.49,6.67-20.49,19.53,0,11.86,8.14,19.31,20.71,19.31,6.9,0,9.3,2.86,9.3,6.59,0,4.73-4.5,7.77-9.46,7.77-5.19,0-9.23-2-9.61-7H29.76c-.24,11,6.66,16.88,20,16.88,10.47,0,20.78-5.86,20.78-17.26A12.62,12.62,0,0,0,63.37,52.59ZM40,38.37c0-6.2,4.27-9.61,9.93-9.61a9.46,9.46,0,0,1,9.61,9.61c0,6.13-4.58,9.15-9.61,9.15C44.26,47.52,40,44,40,38.37Z"/></svg>