<svg xmlns="http://www.w3.org/2000/svg" viewBox="0 0 208.07 58.99"><defs><style>.cls-1{fill:#fff;}</style></defs><title>gambio-logo</title><g id="Ebene_2" data-name="Ebene 2"><g id="Ebene_1-2" data-name="Ebene 1"><path class="cls-1" d="M478.93,274.4c0-9.37,6.4-15,14.66-15,3.84,0,7.27,1.34,8.9,3.95l.29-3.31h7.86v28.73h-7.57l-.46-3.6c-1.86,3.26-6.05,4.48-8.84,4.48-8.61,0-14.84-5.76-14.84-15.24m23.56.29c0-4.13-2.67-7.91-7.62-7.91a7.59,7.59,0,0,0,0,15.18,7.42,7.42,0,0,0,7.62-7.27" transform="translate(-443.68 -247.7)"/><path class="cls-1" d="M517.73,260h7.33l.58,3.26a8.43,8.43,0,0,1,7.57-3.9,8.75,8.75,0,0,1,8.43,5.35c2.56-3.95,5.24-5.35,9.48-5.35,6,0,11.46,2.91,11.46,13.67v15.7h-8.43V273.23c0-3.66-.93-6-4.37-6s-4.88,2.85-4.88,6.11v15.41h-8.26V273.35c0-3.78-1.86-6.28-5.35-6.28-3.32,0-5.18,3.08-5.18,6.34v15.35h-8.38Z" transform="translate(-443.68 -247.7)"/><path class="cls-1" d="M577.3,285.1l-.53,3.66h-7.5V248.05h8.43v15.47a10.89,10.89,0,0,1,9-4.13c8.44,0,14.31,5.7,14.31,15,0,9-5.76,15.24-14.19,15.24-3.67,0-6.93-.76-9.54-4.54m15.3-10.7c0-4.37-2.68-7.39-7-7.39-3.9,0-7.74,2.5-7.74,7.39,0,5.47,4,7.38,7.74,7.38,4.48,0,7-3.25,7-7.38" transform="translate(-443.68 -247.7)"/><path class="cls-1" d="M605.92,252.41a4.77,4.77,0,1,1,4.77,4.71,4.52,4.52,0,0,1-4.77-4.71m.58,7.62h8.38v28.73H606.5Z" transform="translate(-443.68 -247.7)"/><path class="cls-1" d="M620.28,274.46c0-8.67,6.17-15.07,15.71-15.07s15.76,6.4,15.76,15.07c0,9.19-6,15.24-15.76,15.24s-15.71-6.05-15.71-15.24m23,0c0-3.61-2.21-7.57-7.27-7.57s-7.21,4-7.21,7.57c0,3.89,2.09,7.79,7.21,7.79s7.27-3.72,7.27-7.79" transform="translate(-443.68 -247.7)"/><path class="cls-1" d="M469.35,285.06a14.22,14.22,0,0,0,5-8.83,14.92,14.92,0,0,0,.18-2.32,10.7,10.7,0,0,0-.51-3.25,14.14,14.14,0,0,0-1.8-4h0l3.07-3.35-5.45-5-3.05,3.34,0,0a16,16,0,0,0-7.39-1.94h-.28c-8,.07-15.39,5-15.39,14.67,0,8.91,6.12,14.5,15.55,14.5,5.19,0,7,2.16,7,4.95,0,3.56-3.38,5.47-7.1,5.47-3.91,0-6.93-1.3-7.23-5.65h-7.8c-.17,7.83,5,13.05,15,13.05,7.86,0,15.6-4.22,15.6-12.78a9.24,9.24,0,0,0-5.37-8.85m-10.12-3.82c-4.25,0-7.45-2.67-7.45-6.87,0-4.66,3.2-7.22,7.45-7.22a7.11,7.11,0,0,1,7.23,7.22c0,4.6-3.44,6.87-7.23,6.87" transform="translate(-443.68 -247.7)"/></g></g></svg>